<svg width="27" height="28" viewBox="0 0 27 28" fill="none" xmlns="http://www.w3.org/2000/svg">
<path d="M3.93873 11.4318L12.9095 20.1765C13.067 20.3301 13.2784 20.416 13.4984 20.416C13.7185 20.416 13.9298 20.3301 14.0873 20.1765L23.0615 11.4318C23.135 11.3603 23.1934 11.2748 23.2332 11.1803C23.2731 11.0858 23.2937 10.9843 23.2937 10.8817C23.2937 10.7792 23.2731 10.6777 23.2332 10.5832C23.1934 10.4887 23.135 10.4031 23.0615 10.3316C22.9108 10.1844 22.7085 10.102 22.4979 10.102C22.2872 10.102 22.0849 10.1844 21.9342 10.3316L13.4984 18.5548L5.06429 10.3316C4.91368 10.1849 4.71175 10.1028 4.50151 10.1028C4.29127 10.1028 4.08934 10.1849 3.93873 10.3316C3.86525 10.4031 3.80684 10.4887 3.76697 10.5832C3.72709 10.6777 3.70654 10.7792 3.70654 10.8817C3.70654 10.9843 3.72709 11.0858 3.76697 11.1803C3.80684 11.2748 3.86525 11.3603 3.93873 11.4318Z" fill="black"/>
</svg>
