<svg width="27" height="28" viewBox="0 0 27 28" fill="none" xmlns="http://www.w3.org/2000/svg">
<path d="M3.93873 16.5682L12.9095 7.82353C13.067 7.66994 13.2784 7.58398 13.4984 7.58398C13.7185 7.58398 13.9298 7.66994 14.0873 7.82353L23.0615 16.5682C23.135 16.6397 23.1934 16.7252 23.2332 16.8197C23.2731 16.9142 23.2937 17.0157 23.2937 17.1183C23.2937 17.2208 23.2731 17.3223 23.2332 17.4168C23.1934 17.5113 23.135 17.5969 23.0615 17.6684C22.9108 17.8156 22.7085 17.898 22.4979 17.898C22.2872 17.898 22.0849 17.8156 21.9342 17.6684L13.4984 9.44521L5.06429 17.6684C4.91368 17.8151 4.71175 17.8972 4.50151 17.8972C4.29127 17.8972 4.08934 17.8151 3.93873 17.6684C3.86525 17.5969 3.80684 17.5113 3.76697 17.4168C3.72709 17.3223 3.70654 17.2208 3.70654 17.1183C3.70654 17.0157 3.72709 16.9142 3.76697 16.8197C3.80684 16.7252 3.86525 16.6397 3.93873 16.5682Z" fill="black"/>
</svg>
