<svg width="15" height="15" viewBox="0 0 15 15" fill="none" xmlns="http://www.w3.org/2000/svg">
<path d="M12.0189 9.53711L10.4314 9.35586C10.2447 9.33394 10.0555 9.3546 9.878 9.41631C9.70047 9.47801 9.53923 9.57914 9.4064 9.71211L8.2564 10.8621C6.48214 9.95975 5.04001 8.51762 4.13765 6.74336L5.2939 5.58711C5.56265 5.31836 5.6939 4.94336 5.65015 4.56211L5.4689 2.98711C5.43346 2.68222 5.28714 2.40101 5.0578 2.19701C4.82845 1.99302 4.53209 1.8805 4.22515 1.88086H3.1439C2.43765 1.88086 1.85015 2.46836 1.8939 3.17461C2.22515 8.51211 6.4939 12.7746 11.8251 13.1059C12.5314 13.1496 13.1189 12.5621 13.1189 11.8559V10.7746C13.1251 10.1434 12.6501 9.61211 12.0189 9.53711Z" fill="#FAFAFA"/>
</svg>
